# xmcd
#
# Track frame offsets:
#	150
#	24654
#	43123
#	67213
#	89124
#	108418
#	128163
#	147272
#	167222
#	187776
#	204248
#	220717
#	237728
#	252498
#	269352
#	284568
#
# Disc length: 4073 seconds
#
# Revision: 1
# Processed by: cddbd v1.5.2PL0 Copyright (c) Steve Scherf et al.
# Submitted via: EZCDAudioConverter 4.0.9.1
#
DISCID=000fe710
DTITLE=林忆莲 - 往事已尘封
DYEAR=1900
DGENRE=
TTITLE0=往事已尘封
TTITLE1=情深本难解释
TTITLE2=心结难解
TTITLE3=回忆
TTITLE4=情意
TTITLE5=Sorry My Love
TTITLE6=为你我受冷风吹
TTITLE7=不必在乎我是谁
TTITLE8=至少还有你
TTITLE9=存在
TTITLE10=Better Man
TTITLE11=爱过我的每一天
TTITLE12=失踪
TTITLE13=远走高飞
TTITLE14=飞的理由
TTITLE15=盼你在此
EXTD=
EXTT0=
EXTT1=
EXTT2=
EXTT3=
EXTT4=
EXTT5=
EXTT6=
EXTT7=
EXTT8=
EXTT9=
EXTT10=
EXTT11=
EXTT12=
EXTT13=
EXTT14=
EXTT15=
PLAYORDER=
